<svg xmlns="http://www.w3.org/2000/svg" fill="none" viewBox="0 0 992 350">
  <g clip-path="url(#clip0_329_3622)">
    <path
      fill="currentColor"
      d="M.33 81.099h70.9l51.318 85.249 50.229-85.25h68.715l-83.053 129.754 85.24 133.078h-70.906l-52.083-88.249-52.082 88.249H0l84.581-133.509L.33 81.099Zm330.117 0V343.93h-62.259V81.098h62.259Zm62.371 236.178c-28.343-27.089-37.75-62.675-37.75-104.601 0-41.925 9.407-77.83 37.745-104.919 21.887-21.176 53.616-31.928 85.244-31.928 31.618 0 63.352 10.752 85.234 31.928 28.343 27.093 37.75 62.994 37.75 104.919 0 41.926-9.407 77.512-37.75 104.601-21.882 21.175-53.616 31.928-85.234 31.928-31.623 0-63.357-10.753-85.239-31.928Zm124.958-36.336c16.191-15.911 21.117-37.842 21.117-68.265 0-30.423-4.926-52.672-21.117-68.583-9.083-8.923-22.652-14.082-39.613-14.082-16.96 0-30.524 5.159-39.607 14.082-16.196 15.911-21.118 38.16-21.118 68.583 0 30.423 4.922 52.247 21.118 68.265 9.078 8.923 22.647 14.081 39.607 14.081 16.961 0 30.53-5.158 39.613-14.081ZM853.585 81.099V343.93h-70.249l-97.714-178.657V343.94h-60.396V81.099h75.828l92.13 168.349V81.098h60.401Zm72.324 64.818c-14.44-16.549-20.678-31.386-20.678-46.004 0-8.604.983-14.082 2.188-19.032-7.114 14.73-9.519 25.801-9.519 36.23 0 55.15 51.425 62.244 51.425 101.266 0 9.46-5.033 22.254-22.211 46.227C978.872 196.766 992 172.367 992 155.377c0-47.407-51.207-55.363-51.207-108.684 0-12.146 7.109-26.77 20.349-45.903 0 0-12.582 17.416-19.366 26.663-24.181 33.109-33.593 76.108-15.756 118.459l-.111.005Z"
    />
  </g>
  <defs>
    <clipPath id="clip0_329_3622">
      <path fill="#fff" d="M0 .795h992v348.41H0z" />
    </clipPath>
  </defs>
</svg>
