<svg xmlns="http://www.w3.org/2000/svg" fill="none" viewBox="0 0 16 16">
  <path
    fill="currentColor"
    d="M13.545 2.661a12.742 12.742 0 0 0-3.257-1.06.049.049 0 0 0-.052.026 9.689 9.689 0 0 0-.406.874 11.612 11.612 0 0 0-3.658 0 9.035 9.035 0 0 0-.412-.874.05.05 0 0 0-.052-.026 12.709 12.709 0 0 0-3.257 1.06.047.047 0 0 0-.021.02C.356 5.932-.213 9.105.066 12.238c.001.015.01.03.021.04a13.038 13.038 0 0 0 3.995 2.119.05.05 0 0 0 .056-.02c.308-.44.582-.906.818-1.395a.054.054 0 0 0-.028-.074 8.555 8.555 0 0 1-1.248-.624.055.055 0 0 1-.005-.09c.084-.066.168-.134.248-.204a.048.048 0 0 1 .051-.007c2.619 1.255 5.454 1.255 8.041 0a.047.047 0 0 1 .053.007c.08.07.164.139.248.204.03.023.027.07-.004.09a8.03 8.03 0 0 1-1.249.623.055.055 0 0 0-.027.075c.24.489.515.954.817 1.395a.05.05 0 0 0 .056.02 12.992 12.992 0 0 0 4.001-2.12.055.055 0 0 0 .021-.039c.334-3.622-.559-6.768-2.365-9.558a.041.041 0 0 0-.021-.02Zm-8.198 7.67c-.789 0-1.438-.76-1.438-1.693s.637-1.692 1.438-1.692c.807 0 1.45.766 1.438 1.692 0 .933-.637 1.693-1.438 1.693Zm5.316 0c-.788 0-1.438-.76-1.438-1.693s.637-1.692 1.438-1.692c.807 0 1.45.766 1.438 1.692 0 .933-.63 1.693-1.438 1.693Z"
  />
</svg>
