<svg xmlns="http://www.w3.org/2000/svg" fill="none" viewBox="0 0 16 16">
  <path
    fill="currentColor"
    fill-rule="evenodd"
    d="M9 3.793c0-1.142 1.407-1.686 2.175-.84L15 7.159a1.25 1.25 0 0 1 0 1.682l-3.825 4.207c-.768.845-2.175.301-2.175-.841v-1.791a2.322 2.322 0 0 0-.518-.111 4.949 4.949 0 0 0-1.275.042 6.566 6.566 0 0 0-3.004 1.285 1.32 1.32 0 0 1-1.372.161 1.168 1.168 0 0 1-.547-.525 1.152 1.152 0 0 1-.077-.832c.455-1.664 1.6-2.904 2.899-3.743A9.266 9.266 0 0 1 9 5.293v-1.5ZM13.738 8l-3.236-3.56V5.5c0 .703-.561 1.216-1.186 1.27-1.045.088-2.31.482-3.396 1.183-.805.52-1.482 1.188-1.913 1.995A8.146 8.146 0 0 1 6.98 8.864a6.44 6.44 0 0 1 1.669-.05c.491.055.974.185 1.35.429.389.253.502.667.502.964v1.353L13.737 8Z"
    clip-rule="evenodd"
  />
</svg>
