<svg xmlns="http://www.w3.org/2000/svg" fill="none" viewBox="0 0 16 16">
  <path
    fill="currentColor"
    fill-rule="evenodd"
    d="M1.1 7.11c4.295-1.806 7.159-2.997 8.592-3.572 4.091-1.643 4.942-1.928 5.496-1.938.122-.002.394.027.57.166.15.116.19.274.21.385.02.11.044.363.025.56-.222 2.248-1.181 7.706-1.67 10.225-.206 1.065-.612 1.423-1.006 1.458-.856.076-1.505-.546-2.334-1.07-1.297-.821-2.03-1.332-3.288-2.132-1.455-.926-.512-1.434.317-2.266C8.23 8.71 12 5.4 12.072 5.1c.01-.038.018-.178-.069-.252-.086-.074-.213-.048-.305-.028-.13.028-2.201 1.35-6.214 3.965-.588.39-1.12.58-1.598.57-.526-.011-1.538-.287-2.29-.524C.673 8.54-.06 8.388.004 7.896.037 7.64.403 7.378 1.1 7.11Z"
    clip-rule="evenodd"
  />
</svg>
