<svg xmlns="http://www.w3.org/2000/svg" width="143" height="44" fill="none" viewBox="0 0 143 44"><g fill="#fff" clip-path="url(#clip0_1_1106)"><path d="M69.492 42.97h-9.626c-.947-.782-1.109-2.221-1.157-5.686a176.8 176.8 0 0 1-5.803 4.897c-1.334 1.073-2.347 1.441-3.376 1.441-3.503 0-7.042-3.377-7.042-7.493 0-4.117.368-13.213.368-17.164 0-6.053-.534-7-2.76-7.161 3.457.043 8.401-.411 10.126-.661 0 7.537-.368 18.275-.368 20.833 0 1.651.25 3.788 1.073 4.731 1.484 1.77 3.17 2.466 4.695 2.466.661 0 1.896-.99 3.091-1.979v-1.77c0-5.601.044-14.817.044-17.045 0-5.225-.535-6.42-2.76-6.583 3.456.044 8.402-.412 10.127-.661 0 5.72-.036 18.236-.036 24.657 0 6.148 2.019 6.975 3.413 7.177m15.168-31.45c3.832 2.715 5.435 3.749 6.833 3.749.78 0 1.072-.202 2.264-1.109-5.601 5.435-6.876 6.053-8.19 6.053-1.734 0-3.377-1.192-6.254-3.21l5.347-5.483ZM77.6 43.386c-.328.201-.743.368-1.072.368-.578 0-2.304-.614-3.295-1.442-1.155-.906-1.685-2.053-1.685-3.622V15.676c0-2.961-.534-3.706-2.759-3.872 3.456.043 7.988-.202 10.126-.661 0 10.453.035 23.794.166 25.564.328.907 2.348 2.137 3.539 2.137.495 0 1.468-.376 2.43-1.005-.812.62-5.878 4.552-7.445 5.542"/><path d="M111.028 42.97c-1.073-.907-1.156-2.716-1.156-7.538 0-1.733.368-10.086.368-12.635 0-1.65-.249-3.788-1.072-4.73-1.485-1.771-3.171-2.467-4.695-2.467-.696 0-1.896.99-3.092 2.02 0 6.253.084 14.613.25 22.638.036 2.18.368 2.513 1.239 2.714h-9.675c.286-.166.578-.368.614-2.303.202-9.96.202-20.046.202-22.274 0-5.226-.534-6.421-2.76-6.583 3.456.043 8.4-.412 10.126-.66v6.38c1.885-1.627 3.876-3.353 5.804-4.94 1.318-1.089 2.347-1.44 3.376-1.44 3.503 0 7.042 3.376 7.042 7.492 0 4.117-.368 13.214-.368 17.165 0 6.135 2.019 6.958 3.42 7.16h-9.623Zm19.76-35.323v4.117c3.75-.036 7.574-.119 11.445-.083l-6.833 5.886c-.946-.043-2.383-.119-4.612-.166 0 14.983.083 18.074.452 18.605.495.696 3.419 2.549 4.98 2.549.613 0 1.191-.368 5.72-4.65-4.485 4.567-9.264 8.93-10.747 9.757-.329.166-.78.284-1.11.284-.695 0-3.375-1.357-4.979-2.842-1.072-.99-1.686-2.054-1.686-3.623l.166-20.045c-1.156 0-4.299.037-4.299.037l11.503-9.834v.008Zm-113.92 13.42c-1.516-1.77-2.16-3.346-2.16-4.905 0-.922.098-1.5.224-2.031-.744 1.576-.997 2.752-.997 3.864 0 5.878 5.392 6.639 5.392 10.8 0 1.004-.535 2.37-2.333 4.927 5.424-7.236 6.802-9.84 6.802-11.646 0-5.055-5.368-5.902-5.368-11.586 0-1.3.744-2.859 2.13-4.897 0 0-1.319 1.857-2.03 2.846-2.539 3.53-3.52 8.115-1.655 12.631l-.005-.004Z"/><path d="M32.291 37.863c-5.099 0-14.948-4.604-18.973-4.604-2.752 0-6.021 3.578-12.675 10.08 2.6-2.543 4.868-4.32 6.915-4.32 6.9 0 13.273 4.644 20.315 4.644.653 0 .93-.18 1.251-.52.84-.878 2.916-3.09 5.3-5.632-.748.285-1.401.352-2.138.352M30.237 18.35l-5.804 4.913c6.642 1.148 10.386 5.368 10.386 11 0 1.402-.125 2.23-.382 3.238 2.865-3.059 6.143-6.53 6.238-6.622 0-7.506-5.383-11.654-10.438-12.533"/><path d="M15.244 28.145c1.786 0 3.16-.344 3.16-.344s-1.268.3-3.16.3C8.33 28.1 3.75 23.087 3.75 17.377c0-5.708 5.157-12.27 15.035-12.27 8.316-.001 13.264 6.222 13.32 11.828l6.179-5.099C36.375 5.265 30.069 0 21.108 0 10.352 0 3.139 8.97 3.139 16.099s4.754 12.046 12.105 12.046Z"/></g><defs><clipPath id="clip0_1_1106"><path fill="#fff" d="M0 0h142.233v44H0z"/></clipPath></defs></svg>